<svg id="eGphOqS97241" xmlns="http://www.w3.org/2000/svg" xmlns:xlink="http://www.w3.org/1999/xlink" viewBox="0 0 404 514" shape-rendering="geometricPrecision" text-rendering="geometricPrecision" project-id="c1e81163e6e949359b7850e1ee84e1f7" export-id="d1bdb72ec1ec486dbe4f84b7a6943118" cached="false">
<style><![CDATA[
#eGphOqS972417_tr {animation: eGphOqS972417_tr__tr 3000ms linear infinite normal forwards}@keyframes eGphOqS972417_tr__tr { 0% {transform: translate(423px,566.000037px) rotate(0deg)} 23.333333% {transform: translate(423px,566.000037px) rotate(0deg)} 33.333333% {transform: translate(423px,566.000037px) rotate(-24.012107deg)} 66.666667% {transform: translate(423px,566.000037px) rotate(0deg)} 100% {transform: translate(423px,566.000037px) rotate(0deg)}} #eGphOqS972421_to {animation: eGphOqS972421_to__to 3000ms linear infinite normal forwards}@keyframes eGphOqS972421_to__to { 0% {transform: translate(422.499755px,386.999833px)} 23.333333% {transform: translate(422.499755px,386.999833px)} 33.333333% {transform: translate(358.240925px,411.574877px)} 66.666667% {transform: translate(422.499755px,386.999833px)} 100% {transform: translate(422.499755px,386.999833px)}} #eGphOqS972421_tr {animation: eGphOqS972421_tr__tr 3000ms linear infinite normal forwards}@keyframes eGphOqS972421_tr__tr { 0% {transform: rotate(0deg);animation-timing-function: cubic-bezier(0.47,0,0.745,0.715)} 23.333333% {transform: rotate(75.715966deg)} 33.333333% {transform: rotate(21.212451deg)} 66.666667% {transform: rotate(0deg)} 100% {transform: rotate(0deg)}} #eGphOqS972422_tr {animation: eGphOqS972422_tr__tr 3000ms linear infinite normal forwards}@keyframes eGphOqS972422_tr__tr { 0% {transform: translate(394.80632px,520.257029px) rotate(-57.237809deg)} 13.333333% {transform: translate(394.80632px,520.257029px) rotate(-57.237809deg)} 23.333333% {transform: translate(394.80632px,520.257029px) rotate(-57.092906deg)} 33.333333% {transform: translate(394.80632px,520.257029px) rotate(-91.295396deg)} 66.666667% {transform: translate(394.80632px,520.257029px) rotate(-57.237809deg)} 100% {transform: translate(394.80632px,520.257029px) rotate(-57.237809deg)}}
]]></style>
<g transform="translate(-83.0582-245.355)" clip-rule="evenodd"><g clip-rule="evenodd"><g clip-rule="evenodd"><g clip-rule="evenodd"><g transform="translate(74 0)" clip-rule="evenodd"><g transform="matrix(1.48951 0 0 1.48951-80.1364-345.259)" clip-rule="evenodd"><path d="M206,630.75v71.5c0,19.731-16.019,35.75-35.75,35.75h-71.5C79.019,738,63,721.981,63,702.25v-71.5C63,611.019,79.019,595,98.75,595h71.5c19.731,0,35.75,16.019,35.75,35.75Z" clip-rule="evenodd" fill="#1d1b25" fill-rule="evenodd" stroke="#9171f8" stroke-width="6.24" stroke-linecap="round" stroke-linejoin="round" stroke-miterlimit="1.5"/></g><g transform="matrix(.562937 0 0 0.258741 4.23775 426.049)" clip-rule="evenodd"><path d="M206,630.75v71.5c0,19.731-7.363,35.75-16.432,35.75h-110.136C70.363,738,63,721.981,63,702.25v-71.5C63,611.019,70.363,595,79.432,595h110.136C198.637,595,206,611.019,206,630.75Z" clip-rule="evenodd" fill="#1d1b25" fill-rule="evenodd" stroke="#9171f8" stroke-width="21.2" stroke-linecap="round" stroke-linejoin="round" stroke-miterlimit="1.5"/></g><g transform="matrix(.562937 0 0 0.258741 87.2377 469.049)" clip-rule="evenodd"><path d="M206,630.75v71.5c0,19.731-7.363,35.75-16.432,35.75h-110.136C70.363,738,63,721.981,63,702.25v-71.5C63,611.019,70.363,595,79.432,595h110.136C198.637,595,206,611.019,206,630.75Z" clip-rule="evenodd" fill="#1d1b25" fill-rule="evenodd" stroke="#9171f8" stroke-width="21.2" stroke-linecap="round" stroke-linejoin="round" stroke-miterlimit="1.5"/></g><g transform="matrix(.562937 0 0 0.258741 28.2377 524.049)" clip-rule="evenodd"><path d="M206,630.75v71.5c0,19.731-7.363,35.75-16.432,35.75h-110.136C70.363,738,63,721.981,63,702.25v-71.5C63,611.019,70.363,595,79.432,595h110.136C198.637,595,206,611.019,206,630.75Z" clip-rule="evenodd" fill="#1d1b25" fill-rule="evenodd" stroke="#9171f8" stroke-width="21.2" stroke-linecap="round" stroke-linejoin="round" stroke-miterlimit="1.5"/></g></g><g transform="matrix(.341317 0 0 0.563492 328.467 369.135)" clip-rule="evenodd"><path d="M359,330.289v327.422C359,671.668,340.292,683,317.25,683h-83.5C210.708,683,192,671.668,192,657.711v-327.422C192,316.332,210.708,305,233.75,305h83.5c23.042,0,41.75,11.332,41.75,25.289Z" clip-rule="evenodd" fill="#1d1b25" fill-rule="evenodd" stroke="#9171f8" stroke-width="19.94" stroke-linecap="round" stroke-linejoin="round" stroke-miterlimit="1.5"/></g><g id="eGphOqS972417_tr" transform="translate(423,566.000037) rotate(0)"><g transform="translate(-422.999997,-566.000031)"><g transform="matrix(.341317 0 0 0.563492 328.467 181.135)" clip-rule="evenodd"><path d="M359,330.289v327.422C359,671.668,340.292,683,317.25,683h-83.5C210.708,683,192,671.668,192,657.711v-327.422C192,316.332,210.708,305,233.75,305h83.5c23.042,0,41.75,11.332,41.75,25.289Z" clip-rule="evenodd" fill="#1d1b25" fill-rule="evenodd" stroke="#9171f8" stroke-width="19.94" stroke-linecap="round" stroke-linejoin="round" stroke-miterlimit="1.5"/></g><path d="M482,279.5v59c0,16.281-13.219,29.5-29.5,29.5h-59c-16.281,0-29.5-13.219-29.5-29.5v-59c0-16.281,13.219-29.5,29.5-29.5h59c16.281,0,29.5,13.219,29.5,29.5Z" clip-rule="evenodd" fill="#1d1b25" fill-rule="evenodd" stroke="#9171f8" stroke-width="9.29" stroke-linecap="round" stroke-linejoin="round" stroke-miterlimit="1.5"/></g></g></g><g id="eGphOqS972421_to" transform="translate(422.499755,386.999833)"><g id="eGphOqS972421_tr" transform="rotate(0)"><g transform="translate(-422.49974,-386.999811)" clip-rule="evenodd"><g id="eGphOqS972422_tr" transform="translate(394.80632,520.257029) rotate(-57.237809)"><g transform="scale(1.160521,1.160521) translate(-262.883425,-558.368502)" clip-rule="evenodd"><g transform="matrix(.109626 0 0 0.310024 234.416 363.542)" clip-rule="evenodd"><path d="M359,319.763v348.474C359,676.385,340.292,683,317.25,683h-83.5c-23.042,0-41.75-6.615-41.75-14.763v-348.474C192,311.615,210.708,305,233.75,305h83.5c23.042,0,41.75,6.615,41.75,14.763Z" clip-rule="evenodd" fill="#1d1b25" fill-rule="evenodd" stroke="#9171f8" stroke-width="34.42" stroke-linecap="round" stroke-linejoin="round" stroke-miterlimit="1.5"/></g><g transform="translate(15.1184 20)" clip-rule="evenodd"><path d="M309,448l3,16-35.5-13h-54L187,464l3-16l32.5-22h54L309,448Z" clip-rule="evenodd" fill="#1d1b25" fill-rule="evenodd" stroke="#9171f8" stroke-width="8" stroke-linecap="round" stroke-linejoin="round" stroke-miterlimit="1.5"/></g></g></g><g transform="matrix(.337299 0.052222-.073263 0.473198 351.919 209.287)" clip-rule="evenodd"><path d="M359,334.76v318.48c0,16.425-18.708,29.76-41.75,29.76h-83.5C210.708,683,192,669.665,192,653.24v-318.48c0-16.425,18.708-29.76,41.75-29.76h83.5c23.042,0,41.75,13.335,41.75,29.76Z" clip-rule="evenodd" fill="#1d1b25" fill-rule="evenodd" stroke="#9171f8" stroke-width="22.34" stroke-linecap="round" stroke-linejoin="round" stroke-miterlimit="1.5"/></g></g></g></g></g></g></g></svg>
