<svg id="eiW4YmlPJ8R1" xmlns="http://www.w3.org/2000/svg" xmlns:xlink="http://www.w3.org/1999/xlink" viewBox="0 0 669 669" shape-rendering="geometricPrecision" text-rendering="geometricPrecision" project-id="543b1e9d79c54e9894dac736894e2ee8" export-id="fbb7b16faec6496b830a3030233d3856" cached="false">
<style><![CDATA[
#eiW4YmlPJ8R7_to {animation: eiW4YmlPJ8R7_to__to 3000ms linear infinite normal forwards}@keyframes eiW4YmlPJ8R7_to__to { 0% {transform: translate(-193.999392px,132.000027px)} 6.666667% {transform: translate(124.0006px,132.000027px)} 86.666667% {transform: translate(124.0006px,132.000027px)} 93.333333% {transform: translate(124.0006px,748.000017px)} 100% {transform: translate(124.0006px,748.000017px)}} #eiW4YmlPJ8R9_to {animation: eiW4YmlPJ8R9_to__to 3000ms linear infinite normal forwards}@keyframes eiW4YmlPJ8R9_to__to { 0% {transform: translate(-624.59808px,19.401257px)} 6.666667% {transform: translate(-624.59808px,19.401257px)} 13.333333% {transform: translate(-90.5978px,19.401257px)} 83.333333% {transform: translate(-90.5978px,19.401257px)} 90% {transform: translate(-90.5978px,579.923073px)} 100% {transform: translate(-90.5978px,579.923073px)}} #eiW4YmlPJ8R11_to {animation: eiW4YmlPJ8R11_to__to 3000ms linear infinite normal forwards}@keyframes eiW4YmlPJ8R11_to__to { 0% {transform: translate(-117px,79.9231px)} 13.333333% {transform: translate(-117px,79.9231px)} 20% {transform: translate(64px,79.9231px)} 83.333333% {transform: translate(64px,79.9231px)} 86.666667% {transform: translate(64px,579.923073px)} 100% {transform: translate(64px,579.923073px)}} #eiW4YmlPJ8R13_to {animation: eiW4YmlPJ8R13_to__to 3000ms linear infinite normal forwards}@keyframes eiW4YmlPJ8R13_to__to { 0% {transform: translate(-492.74204px,137.923px)} 16.666667% {transform: translate(-492.74204px,137.923px)} 23.333333% {transform: translate(-50.4397px,137.923px)} 76.666667% {transform: translate(-50.4397px,137.923px)} 83.333333% {transform: translate(-50.4397px,579.923073px)} 100% {transform: translate(-50.4397px,579.923073px)}} #eiW4YmlPJ8R15_to {animation: eiW4YmlPJ8R15_to__to 3000ms linear infinite normal forwards}@keyframes eiW4YmlPJ8R15_to__to { 0% {transform: translate(-565.64386px,195.923px)} 20% {transform: translate(-565.64386px,195.923px)} 26.666667% {transform: translate(-72.6428px,195.923px)} 73.333333% {transform: translate(-72.6428px,195.923px)} 80% {transform: translate(-72.6428px,579.923073px)} 100% {transform: translate(-72.6428px,579.923073px)}} #eiW4YmlPJ8R17_to {animation: eiW4YmlPJ8R17_to__to 3000ms linear infinite normal forwards}@keyframes eiW4YmlPJ8R17_to__to { 0% {transform: translate(-410.56152px,253.923px)} 23.333333% {transform: translate(-410.56152px,253.923px)} 30% {transform: translate(-25.4091px,253.923px)} 70% {transform: translate(-25.4091px,253.923px)} 76.666667% {transform: translate(-25.4091px,579.923073px)} 100% {transform: translate(-25.4091px,579.923073px)}} #eiW4YmlPJ8R19_to {animation: eiW4YmlPJ8R19_to__to 3000ms linear infinite normal forwards}@keyframes eiW4YmlPJ8R19_to__to { 0% {transform: translate(-154.683342px,311.923px)} 30% {transform: translate(-154.683342px,311.923px)} 36.666667% {transform: translate(52.5228px,311.923px)} 66.666667% {transform: translate(52.5228px,311.923px)} 73.333333% {transform: translate(52.5228px,579.923073px)} 100% {transform: translate(52.5228px,579.923073px)}} #eiW4YmlPJ8R21_to {animation: eiW4YmlPJ8R21_to__to 3000ms linear infinite normal forwards}@keyframes eiW4YmlPJ8R21_to__to { 0% {transform: translate(-248.681498px,369.923px)} 33.333333% {transform: translate(-248.681498px,369.923px)} 40% {transform: translate(23.894px,369.923px)} 63.333333% {transform: translate(23.894px,369.923px)} 70% {transform: translate(23.894px,579.923073px)} 100% {transform: translate(23.894px,579.923073px)}} #eiW4YmlPJ8R23_to {animation: eiW4YmlPJ8R23_to__to 3000ms linear infinite normal forwards}@keyframes eiW4YmlPJ8R23_to__to { 0% {transform: translate(-548.46546px,427.923px)} 40% {transform: translate(-548.46546px,427.923px)} 46.666667% {transform: translate(-67.4102px,427.923px)} 60% {transform: translate(-67.4102px,427.923px)} 66.666667% {transform: translate(-68.591476px,579.923073px)} 100% {transform: translate(-68.591476px,579.923073px)}} #eiW4YmlPJ8R25_to {animation: eiW4YmlPJ8R25_to__to 3000ms linear infinite normal forwards}@keyframes eiW4YmlPJ8R25_to__to { 0% {transform: translate(-80.665714px,485.923px)} 46.666667% {transform: translate(-80.665714px,485.923px)} 53.333333% {transform: translate(75.0663px,485.923px)} 60% {transform: translate(75.0663px,485.923px)} 63.333333% {transform: translate(75.0663px,579.923073px)} 100% {transform: translate(75.0663px,579.923073px)}}
]]></style>
<g transform="translate(-80-60)" clip-rule="evenodd"><path d="M749,112.917v563.166C749,705.289,725.289,729,696.083,729h-563.166C103.711,729,80,705.289,80,676.083v-563.166C80,83.711,103.711,60,132.917,60h563.166C725.289,60,749,83.711,749,112.917Z" clip-rule="evenodd" fill="#1e1b25" fill-rule="evenodd" stroke-linejoin="round" stroke-miterlimit="2"/><g clip-path="url(#eiW4YmlPJ8R27)" clip-rule="evenodd"><g><g clip-rule="evenodd"><g id="eiW4YmlPJ8R7_to" transform="translate(-193.999392,132.000027)"><g transform="scale(1,0.974359) translate(-120.0006,-172.500017)" clip-rule="evenodd"><path d="M394,172.5c0,10.762-8.514,19.5-19,19.5h-236c-10.486,0-18.9994-8.738-18.9994-19.5s8.5134-19.5,18.9994-19.5h236c10.486,0,19,8.738,19,19.5Z" clip-rule="evenodd" fill="#9171f8" fill-rule="evenodd" stroke-linejoin="round" stroke-miterlimit="2"/></g></g><g id="eiW4YmlPJ8R9_to" transform="translate(-624.59808,19.401257)"><g transform="scale(1.78832,0.974359) translate(0,0)" clip-rule="evenodd"><path d="M394,172.5c0,10.762-4.761,19.5-10.624,19.5h-252.752C124.761,192,120,183.262,120,172.5s4.761-19.5,10.624-19.5h252.752c5.863,0,10.624,8.738,10.624,19.5Z" clip-rule="evenodd" fill="#9171f8" fill-rule="evenodd" stroke-linejoin="round" stroke-miterlimit="2"/></g></g><g id="eiW4YmlPJ8R11_to" transform="translate(-117,79.9231)"><g transform="scale(0.5,0.974359) translate(0,0)" clip-rule="evenodd"><path d="M394,172.5c0,10.762-17.027,19.5-38,19.5h-198c-20.973,0-38-8.738-38-19.5s17.027-19.5,38-19.5h198c20.973,0,38,8.738,38,19.5Z" clip-rule="evenodd" fill="#9171f8" fill-rule="evenodd" stroke-linejoin="round" stroke-miterlimit="2"/></g></g><g id="eiW4YmlPJ8R13_to" transform="translate(-492.74204,137.923)"><g transform="scale(1.45366,0.974359) translate(0,0)" clip-rule="evenodd"><path d="M394,172.5c0,10.762-5.857,19.5-13.07,19.5h-247.86c-7.213,0-13.07-8.738-13.07-19.5s5.857-19.5,13.07-19.5h247.86c7.213,0,13.07,8.738,13.07,19.5Z" clip-rule="evenodd" fill="#9171f8" fill-rule="evenodd" stroke-linejoin="round" stroke-miterlimit="2"/></g></g><g id="eiW4YmlPJ8R15_to" transform="translate(-565.64386,195.923)"><g transform="scale(1.63869,0.974359) translate(0,0)" clip-rule="evenodd"><path d="M394,172.5c0,10.762-5.195,19.5-11.595,19.5h-250.81c-6.4,0-11.595-8.738-11.595-19.5s5.195-19.5,11.595-19.5h250.81c6.4,0,11.595,8.738,11.595,19.5Z" clip-rule="evenodd" fill="#9171f8" fill-rule="evenodd" stroke-linejoin="round" stroke-miterlimit="2"/></g></g><g id="eiW4YmlPJ8R17_to" transform="translate(-410.56152,253.923)"><g transform="scale(1.24508,0.974359) translate(0,0)" clip-rule="evenodd"><path d="M394,172.5c0,10.762-6.838,19.5-15.26,19.5h-243.48c-8.422,0-15.26-8.738-15.26-19.5s6.838-19.5,15.26-19.5h243.48c8.422,0,15.26,8.738,15.26,19.5Z" clip-rule="evenodd" fill="#9171f8" fill-rule="evenodd" stroke-linejoin="round" stroke-miterlimit="2"/></g></g><g id="eiW4YmlPJ8R19_to" transform="translate(-154.683342,311.923)"><g transform="scale(0.595643,0.974359) translate(0,0)" clip-rule="evenodd"><path d="M394,172.5c0,10.762-14.293,19.5-31.898,19.5h-210.204C134.293,192,120,183.262,120,172.5s14.293-19.5,31.898-19.5h210.204C379.707,153,394,161.738,394,172.5Z" clip-rule="evenodd" fill="#9171f8" fill-rule="evenodd" stroke-linejoin="round" stroke-miterlimit="2"/></g></g><g id="eiW4YmlPJ8R21_to" transform="translate(-248.681498,369.923)"><g transform="scale(0.834217,0.974359) translate(0,0)" clip-rule="evenodd"><path d="M394,172.5c0,10.762-10.206,19.5-22.776,19.5h-228.448C130.206,192,120,183.262,120,172.5s10.206-19.5,22.776-19.5h228.448c12.57,0,22.776,8.738,22.776,19.5Z" clip-rule="evenodd" fill="#9171f8" fill-rule="evenodd" stroke-linejoin="round" stroke-miterlimit="2"/></g></g><g id="eiW4YmlPJ8R23_to" transform="translate(-548.46546,427.923)"><g transform="scale(1.59509,0.974359) translate(0,0)" clip-rule="evenodd"><path d="M394,172.5c0,10.762-5.337,19.5-11.912,19.5h-250.176C125.337,192,120,183.262,120,172.5s5.337-19.5,11.912-19.5h250.176c6.575,0,11.912,8.738,11.912,19.5Z" clip-rule="evenodd" fill="#9171f8" fill-rule="evenodd" stroke-linejoin="round" stroke-miterlimit="2"/></g></g><g id="eiW4YmlPJ8R25_to" transform="translate(-80.665714,485.923)"><g transform="scale(0.407781,0.974359) translate(0,0)" clip-rule="evenodd"><path d="M394,172.5c0,10.762-20.878,19.5-46.594,19.5h-180.812C140.878,192,120,183.262,120,172.5s20.878-19.5,46.594-19.5h180.812C373.122,153,394,161.738,394,172.5Z" clip-rule="evenodd" fill="#9171f8" fill-rule="evenodd" stroke-linejoin="round" stroke-miterlimit="2"/></g></g></g></g><clipPath id="eiW4YmlPJ8R27"><path d="M749,112.917v563.166C749,705.289,725.289,729,696.083,729h-563.166C103.711,729,80,705.289,80,676.083v-563.166C80,83.711,103.711,60,132.917,60h563.166C725.289,60,749,83.711,749,112.917Z" clip-rule="evenodd" fill-rule="evenodd" stroke-linejoin="round" stroke-miterlimit="2"/></clipPath></g></g></svg>
